<?xml version="1.0" encoding="utf-8"?>
<!-- Generator: Adobe Illustrator 16.0.0, SVG Export Plug-In . SVG Version: 6.00 Build 0)  -->
<!DOCTYPE svg PUBLIC "-//W3C//DTD SVG 1.1//EN" "http://www.w3.org/Graphics/SVG/1.1/DTD/svg11.dtd">
<svg version="1.1" id="Layer_1" xmlns="http://www.w3.org/2000/svg" xmlns:xlink="http://www.w3.org/1999/xlink" x="0px" y="0px"
	 width="841.889px" height="595.281px" viewBox="0 0 841.889 595.281" enable-background="new 0 0 841.889 595.281"
	 xml:space="preserve">
<g id="Group_66" transform="translate(6.308 -50.986)">
	<path id="Path_49" fill="#FFFFFF" d="M205.301,313.161c-5.409,55.533-10.212,111.026-16.85,166.546
		c-5.409,43.571-9.63,87.122-16.255,129.811c-2.153,10.424-3.555,20.989-4.194,31.614c8.994-2.658,18.305-4.092,27.682-4.26
		c9.582,0.124,19.102,1.558,28.296,4.26c1.195-17.927,1.79-34.979,2.411-52.92c1.201-28.171,2.998-55.532,4.194-83.685
		c1.822-32.457,4.22-64.059,6.029-96.496c3.606-50.444,8.429-100.854,12.643-151.233c28.296,82.849,57.793,164.815,85.481,247.671
		l46.354,136.663c7.475-2.123,15.393-2.123,22.866,0c42.734-132.364,87.879-263.036,133.639-393.696
		c9.028,131.528,21.057,262.194,25.277,393.696c16.165-2.264,32.438-3.686,48.751-4.26c16.52,0.572,32.999,1.994,49.372,4.26
		c-0.71-12.022-2.114-23.994-4.207-35.854c-4.815-49.542-10.238-99.071-14.459-148.606
		c-11.439-133.233-22.866-266.46-33.077-399.681c-14.467,4.397-29.822,4.989-44.584,1.719c-2.391-0.889-4.207-0.889-6.618-1.719
		c-33.091,103.292-68.011,204.956-104.729,305.726l-35.508,98.188C370.253,326.822,322.69,193.601,278.761,56.964
		c-8.056,2.3-16.335,3.726-24.695,4.253c-8.089-1.014-16.122-2.434-24.069-4.253L205.301,313.161z"/>
</g>
</svg>
