<?xml version="1.0" encoding="utf-8"?>
<!-- Generator: Adobe Illustrator 16.0.0, SVG Export Plug-In . SVG Version: 6.00 Build 0)  -->
<!DOCTYPE svg PUBLIC "-//W3C//DTD SVG 1.1//EN" "http://www.w3.org/Graphics/SVG/1.1/DTD/svg11.dtd">
<svg version="1.1" id="Layer_1" xmlns="http://www.w3.org/2000/svg" xmlns:xlink="http://www.w3.org/1999/xlink" x="0px" y="0px"
	 width="425.197px" height="425.197px" viewBox="0 0 425.197 425.197" enable-background="new 0 0 425.197 425.197"
	 xml:space="preserve">
<g>
	<path fill="#FFFFFF" stroke="#312783" stroke-width="1.1965" stroke-miterlimit="3.8637" d="M67.423,187.134
		c-3.766,38.547-7.102,77.091-11.711,115.642c-3.761,30.243-6.676,60.505-11.288,90.145c-0.843,4.151-2.92,16.017-2.92,21.936
		c6.265-1.773,12.955-2.95,19.224-2.95c6.695,0,13.389,1.177,19.65,2.95c0.842-12.449,1.249-24.298,1.679-36.765
		c0.833-19.558,2.078-38.554,2.915-58.125c1.259-22.537,2.924-44.46,4.192-67.012c2.512-34.984,5.844-69.976,8.772-104.974
		c19.641,57.533,40.133,114.464,59.361,171.986l32.184,94.89c5.445-1.773,10.459-1.187,15.892,0
		c29.691-91.926,61.033-182.672,92.791-273.403c6.292,91.343,14.639,182.08,17.563,273.403c11.299-1.187,22.578-2.95,33.867-2.95
		s22.994,1.764,34.274,2.95c0-8.29-2.092-17.784-2.924-24.898c-3.34-34.395-7.106-68.8-10.031-103.199
		c-7.94-92.508-15.879-185.045-22.994-277.554c-10.014,2.966-20.479,3.546-30.926,1.183c-1.675-0.592-2.934-0.592-4.608-1.183
		c-22.994,71.771-47.237,142.341-72.739,212.311l-24.654,68.209c-33.021-93.106-66.052-185.621-96.565-280.52
		c-5.445,1.183-11.296,2.966-17.141,2.966c-5.446,0-11.281-2.375-16.721-2.966L67.423,187.134z"/>
	<path fill="#009640" d="M84.738,53.86c9.623,2.171,7.984,3.073,15.68,6.713h32.104c4.489,14.208,14.438,43.699,14.438,43.699
		c-12.511,0-20.862,5.48-32.099,5.48c-10.917,0-34.594-5.529-34.594-19.733C80.267,81.268,84.415,62.963,84.738,53.86z"/>
	<path fill="#008FD6" d="M161.324,192.465c0,4.011,7.063,4.739,7.063,10.924c0,8.732-11.866,11.653-17.652,11.653
		c-4.812,0-24.899,0.856-27.203-2.738c-6.42-10.007-9.751-30.857-15.366-42.683c6.111,3.644,10.479,3.54,16.895,5.36
		C138.862,178.627,161.324,176.073,161.324,192.465z"/>
	<path fill="#008FD6" d="M94.259,162.222c-6.42,0-17.722-9.994-24.785-12.558c0,14.568-1.369,28.953-1.369,39.511
		c0,4.726,18.294,8.191,23.744,8.561c0-5.464-0.559-7.269,0.73-11.647C92.58,186.089,96.5,162.222,94.259,162.222z"/>
	<path fill="#F39200" d="M55.691,294.45c3.527,0,14.116-12.741,18.285-15.66c5.782,5.463,10.598,10.935,10.598,22.953
		c0,9.103,1.36,17.492,0.08,24.401l-2.326,40.072c-5.772,10.192-6.734,12.248-14.439,19.536H55.899
		c-1.608,0.726-4.581-0.155-5.542,0.938l-4.617,0.943l0.395-8.661c2.901-9.478,4.022-27.332,5.617-46.456
		C52.55,323.099,55.691,294.45,55.691,294.45z"/>
	<path fill="#FFD500" d="M180.47,378.605c2.573,1.462,7.142,36.002,10.836,37.075c18.776,5.453,33.081-62.346,33.081-71.092
		C215.085,354.06,189.787,370.595,180.47,378.605z"/>
	<path fill="#009640" d="M250.74,261.993c0-12.021-4.165-12.741-12.839-12.741c-16.357,0-16.226,32.475-22.005,41.211
		c-7.696-5.095-11.364-25.177-14.249-33.929c-8.339,15.668-19.26,26.586-31.138,40.07c-3.208,3.65-14.958,11.909-14.958,15.18
		c0,5.463,15.197,42.844,15.197,42.844s19.016-27.062,22.219-30.712c8.032-9.103,27.29-8.734,36.923-16.394
		C241.117,298.785,250.74,283.861,250.74,261.993z"/>
	<path fill="#F39200" d="M299.432,42.713l50.287,15.915c3.988,16.264-0.444,35.177,3.394,45.367l-24.829-0.282
		c-13.469-7.643-25.29-12.835-36.844-21.585C297.216,66.831,296.534,56.195,299.432,42.713z"/>
	<path fill="#E30613" d="M363.95,238.829c-17.014-14.217-39.761-21.833-56.445-35.32c-4.812-3.654-5.343-28.435-5.343-28.435
		s-2.729-21.845-2.729-28.04c-7.94,18.012-12.902,27.03-18.68,47.067c-6.105-8.012-21.338-20.233-17.04-34.513
		c4.396-14.574,9.633-31.672,27.93-31.672c13.479,0,15.898,10.297,25.671,14.577C360.75,161.408,363.95,180.914,363.95,238.829z"/>
	<path fill="#FFD500" d="M369.436,335.15c0-12.388-8.924-10.03-18.547-10.03c-13.797,0-37.748,12.236-37.748,22.789l1.86,30.111
		c1.923,3.278,1.196,9.536,1.843,13.177C334.823,373.341,369.436,373.014,369.436,335.15z"/>
	<path fill="none" stroke="#2B2171" stroke-width="1.1965" stroke-miterlimit="3.8637" d="M67.228,187.707
		c-3.752,38.567-7.093,77.103-11.696,115.658c-3.757,30.252-6.69,60.496-11.289,90.145c-0.833,4.155-2.916,16.004-2.916,21.931
		c6.27-1.771,12.946-2.953,19.224-2.953c6.677,0,13.381,1.183,19.649,2.953c0.833-12.45,1.246-24.287,1.675-36.772
		c0.833-19.556,2.083-38.546,2.911-58.112c1.267-22.537,2.933-44.483,4.191-67.008c2.503-34.982,5.853-69.993,8.777-104.979
		c19.649,57.533,40.132,114.471,59.36,171.987l32.188,94.885c5.427-1.771,10.443-1.183,15.893,0
		c29.674-91.916,61.024-182.658,92.799-273.392c6.275,91.337,14.622,182.073,17.556,273.392c11.298-1.183,22.577-2.953,33.857-2.953
		c11.297,0,22.994,1.771,34.284,2.953c0-8.298-2.083-17.775-2.925-24.899c-3.34-34.403-7.105-68.794-10.039-103.191
		c-7.949-92.524-15.87-185.039-22.969-277.553c-10.058,2.955-20.504,3.558-30.962,1.196c-1.655-0.62-2.924-0.62-4.598-1.196
		c-22.994,71.764-47.238,142.346-72.732,212.321l-24.663,68.188c-33.029-93.111-66.055-185.626-96.564-280.509
		c-5.436,1.196-11.28,2.955-17.145,2.955c-5.437,0-11.285-2.379-16.717-2.955L67.228,187.707z"/>
</g>
</svg>
